<svg width="64" height="64" viewBox="0 0 64 64" fill="none" xmlns="http://www.w3.org/2000/svg">
<rect x="40.5356" y="49.0503" width="2" height="12" rx="1" transform="rotate(45 40.5356 49.0503)" fill="white"/>
<rect x="32.0503" y="50.4645" width="2" height="12" rx="1" transform="rotate(-45 32.0503 50.4645)" fill="white"/>
<rect x="31" y="55" width="2" height="12" rx="1" transform="rotate(-90 31 55)" fill="white"/>
<rect x="38" y="60" width="2" height="12" rx="1" transform="rotate(180 38 60)" fill="white"/>
<rect x="21.5" y="4" width="2" height="6" rx="1" fill="white"/>
<rect x="21.5" y="37" width="2" height="6" rx="1" fill="white"/>
<rect x="8.00439" y="10.4185" width="2" height="6" rx="1" transform="rotate(-45 8.00439 10.4185)" fill="white"/>
<rect x="31.3389" y="33.7531" width="2" height="6" rx="1" transform="rotate(-45 31.3389 33.7531)" fill="white"/>
<rect x="35.5815" y="9.00427" width="2" height="6" rx="1" transform="rotate(45 35.5815 9.00427)" fill="white"/>
<rect x="12.2471" y="32.3388" width="2" height="6" rx="1" transform="rotate(45 12.2471 32.3388)" fill="white"/>
<rect x="35.5815" y="9.00427" width="2" height="6" rx="1" transform="rotate(45 35.5815 9.00427)" fill="white"/>
<rect x="12.2471" y="32.3388" width="2" height="6" rx="1" transform="rotate(45 12.2471 32.3388)" fill="white"/>
<rect x="3" y="24.5" width="2" height="6" rx="1" transform="rotate(-90 3 24.5)" fill="white"/>
<rect x="36" y="24.5" width="2" height="6" rx="1" transform="rotate(-90 36 24.5)" fill="white"/>
<rect x="12.5" y="13" width="20" height="20" rx="10" fill="#1C1E2A"/>
<rect x="12.5" y="13" width="20" height="20" rx="10" fill="white" fill-opacity="0.5"/>
<rect x="12.5" y="13" width="20" height="20" rx="10" stroke="white" stroke-width="2"/>
<path d="M53.7333 44.5C58.4948 44.5 62.4667 40.8662 62.4667 36.25C62.4667 31.6338 58.4948 28 53.7333 28C48.9718 28 45 31.6338 45 36.25C45 40.8662 48.9718 44.5 53.7333 44.5Z" fill="#1C1E2A" stroke="white" stroke-width="2"/>
<path fill-rule="evenodd" clip-rule="evenodd" d="M50.061 43H37.5V45.1951H54.3293V44.0976L50.061 43Z" fill="white"/>
<path fill-rule="evenodd" clip-rule="evenodd" d="M50.256 40.1219H37.6951V43.5366H54.5243V41.8293L50.256 40.1219Z" fill="#1C1E2A"/>
<circle cx="37.0854" cy="29.2683" r="15.2683" fill="#1C1E2A" stroke="white" stroke-width="2"/>
<circle cx="22.939" cy="35.8536" r="8.43902" fill="#1C1E2A" stroke="white" stroke-width="2"/>
</svg>
