<svg width="64" height="64" viewBox="0 0 64 64" fill="none" xmlns="http://www.w3.org/2000/svg">
<path d="M47.2333 39.5C51.9948 39.5 55.9667 35.8662 55.9667 31.25C55.9667 26.6338 51.9948 23 47.2333 23C42.4718 23 38.5 26.6338 38.5 31.25C38.5 35.8662 42.4718 39.5 47.2333 39.5Z" fill="#13141D" stroke="white" stroke-width="2"/>
<path fill-rule="evenodd" clip-rule="evenodd" d="M43.561 38H31V40.1951H47.8293V39.0976L43.561 38Z" fill="white"/>
<path fill-rule="evenodd" clip-rule="evenodd" d="M43.756 35.1219H31.1951V38.5366H48.0243V36.8293L43.756 35.1219Z" fill="#13141D"/>
<circle cx="30.5854" cy="24.2683" r="15.2683" fill="#13141D" stroke="white" stroke-width="2"/>
<circle cx="16.439" cy="30.8536" r="8.43902" fill="#13141D" stroke="white" stroke-width="2"/>
<path d="M30.1317 30.8287C30.3557 30.3248 30.8554 30 31.4069 30V30C32.4026 30 33.0779 31.013 32.6949 31.9321L31.3131 35.2485C31.1642 35.606 31.4268 36 31.8142 36V36C32.6037 36 33.1291 36.816 32.8024 37.5347L31.5331 40.3272C31.2834 40.8764 31.6849 41.5 32.2882 41.5V41.5C32.9813 41.5 33.3688 42.2995 32.9393 42.8435L26.5 51L29 44.5H28.053C27.3257 44.5 26.8417 43.7483 27.1426 43.0862L28.4804 40.1432C28.7237 39.6078 28.3323 39 27.7442 39V39C27.1591 39 26.7677 38.3977 27.0053 37.863L30.1317 30.8287Z" fill="#A7A7A7"/>
<rect x="23.0356" y="43.0503" width="2" height="12" rx="1" transform="rotate(45 23.0356 43.0503)" fill="white"/>
<rect x="14.5503" y="44.4645" width="2" height="12" rx="1" transform="rotate(-45 14.5503 44.4645)" fill="white"/>
<rect x="13.5" y="49" width="2" height="12" rx="1" transform="rotate(-90 13.5 49)" fill="white"/>
<rect x="20.5" y="54" width="2" height="12" rx="1" transform="rotate(180 20.5 54)" fill="white"/>
</svg>
