<svg width="64" height="64" viewBox="0 0 64 64" fill="none" xmlns="http://www.w3.org/2000/svg">
<circle cx="49.2562" cy="34.2073" r="9.18292" fill="#1C1E2A" stroke="white" stroke-width="2"/>
<path fill-rule="evenodd" clip-rule="evenodd" d="M44.6952 41.5853H30.8782V44H49.3904V42.7926L44.6952 41.5853Z" fill="white"/>
<path fill-rule="evenodd" clip-rule="evenodd" d="M45.2316 38.6341H31.4146V42.3902H49.9267V40.5121L45.2316 38.6341Z" fill="#1C1E2A"/>
<circle cx="30.7439" cy="26.6951" r="16.6951" fill="#1C1E2A" stroke="white" stroke-width="2"/>
<circle cx="15.1829" cy="33.939" r="9.18292" fill="#1C1E2A" stroke="white" stroke-width="2"/>
<path d="M20.54 52.1652L23.54 52.1652L26.04 47.1652L23.54 47.1652L20.54 52.1652Z" fill="white"/>
<path d="M26.54 52.1652L29.54 52.1652L32.04 47.1652L29.54 47.1652L26.54 52.1652Z" fill="white"/>
<path d="M32.54 52.1652L35.54 52.1652L38.04 47.1652L35.54 47.1652L32.54 52.1652Z" fill="white"/>
<path d="M38.54 52.1652L41.54 52.1652L44.04 47.1652L41.54 47.1652L38.54 52.1652Z" fill="white"/>
<path d="M44.54 52.1652L47.54 52.1652L50.04 47.1652L47.54 47.1652L44.54 52.1652Z" fill="white"/>
<path d="M17.04 52.1651L19.5401 47.1651L14.54 47.1651L17.04 52.1651Z" fill="white"/>
</svg>
