<svg width="64" height="64" viewBox="0 0 64 64" fill="none" xmlns="http://www.w3.org/2000/svg">
<path d="M47.2333 41.5C51.9948 41.5 55.9667 37.8662 55.9667 33.25C55.9667 28.6338 51.9948 25 47.2333 25C42.4718 25 38.5 28.6338 38.5 33.25C38.5 37.8662 42.4718 41.5 47.2333 41.5Z" fill="#13141D" stroke="white" stroke-width="2"/>
<path fill-rule="evenodd" clip-rule="evenodd" d="M43.561 40H31V42.1951H47.8293V41.0976L43.561 40Z" fill="white"/>
<path fill-rule="evenodd" clip-rule="evenodd" d="M43.756 37.1219H31.1951V40.5366H48.0243V38.8293L43.756 37.1219Z" fill="#13141D"/>
<circle cx="30.5854" cy="26.2683" r="15.2683" fill="#13141D" stroke="white" stroke-width="2"/>
<circle cx="16.439" cy="32.8536" r="8.43902" fill="#13141D" stroke="white" stroke-width="2"/>
<path d="M30.1317 32.8287C30.3557 32.3248 30.8554 32 31.4069 32V32C32.4026 32 33.0779 33.013 32.6949 33.9321L31.3131 37.2485C31.1642 37.606 31.4268 38 31.8142 38V38C32.6037 38 33.1291 38.816 32.8024 39.5347L31.5331 42.3272C31.2834 42.8764 31.6849 43.5 32.2882 43.5V43.5C32.9813 43.5 33.3688 44.2995 32.9393 44.8435L26.5 53L29 46.5H28.053C27.3257 46.5 26.8417 45.7483 27.1426 45.0862L28.4804 42.1432C28.7237 41.6078 28.3323 41 27.7442 41V41C27.1591 41 26.7677 40.3977 27.0053 39.863L30.1317 32.8287Z" fill="#A7A7A7"/>
</svg>
