<svg width="64" height="64" viewBox="0 0 64 64" fill="none" xmlns="http://www.w3.org/2000/svg">
<circle cx="49.2562" cy="34.2073" r="9.18292" fill="#1C1E2A" stroke="white" stroke-width="2"/>
<path fill-rule="evenodd" clip-rule="evenodd" d="M44.6952 41.5853H30.8782V44H49.3904V42.7926L44.6952 41.5853Z" fill="white"/>
<path fill-rule="evenodd" clip-rule="evenodd" d="M45.2316 38.6341H31.4146V42.3902H49.9267V40.5121L45.2316 38.6341Z" fill="#1C1E2A"/>
<circle cx="30.7439" cy="26.6951" r="16.6951" fill="#1C1E2A" stroke="white" stroke-width="2"/>
<circle cx="15.1829" cy="33.939" r="9.18292" fill="#1C1E2A" stroke="white" stroke-width="2"/>
<path d="M27.54 52L30.54 52L33.04 47L30.54 47L27.54 52Z" fill="white"/>
<path d="M33.54 52L36.54 52L39.04 47L36.54 47L33.54 52Z" fill="white"/>
<path d="M39.54 52L42.54 52L45.04 47L42.54 47L39.54 52Z" fill="white"/>
<path d="M24.04 52L26.5401 47L21.54 47L24.04 52Z" fill="white"/>
</svg>
