<svg width="64" height="64" viewBox="0 0 64 64" fill="none" xmlns="http://www.w3.org/2000/svg">
<circle cx="49.2562" cy="32.2073" r="9.18292" fill="#1C1E2A" stroke="white" stroke-width="2"/>
<path fill-rule="evenodd" clip-rule="evenodd" d="M44.6952 39.5853H30.8782V42H49.3904V40.7926L44.6952 39.5853Z" fill="white"/>
<path fill-rule="evenodd" clip-rule="evenodd" d="M45.2316 36.6341H31.4146V40.3902H49.9267V38.5121L45.2316 36.6341Z" fill="#1C1E2A"/>
<circle cx="30.7439" cy="24.6951" r="16.6951" fill="#1C1E2A" stroke="white" stroke-width="2"/>
<circle cx="15.1829" cy="31.939" r="9.18292" fill="#1C1E2A" stroke="white" stroke-width="2"/>
<path d="M26.54 53.8514L29.54 53.8514L32.04 45.5812L29.54 45.5812L26.54 53.8514Z" fill="white"/>
<path d="M32.54 53.8514L35.54 53.8514L38.04 45.5812L35.54 45.5812L32.54 53.8514Z" fill="white"/>
<path d="M38.54 53.8514L41.54 53.8514L44.04 45.5812L41.54 45.5812L38.54 53.8514Z" fill="white"/>
<path d="M23.04 53.8513L25.5401 45.5811L20.54 45.5812L23.04 53.8513Z" fill="white"/>
</svg>
