<svg width="64" height="64" viewBox="0 0 64 64" fill="none" xmlns="http://www.w3.org/2000/svg">
<rect x="21.5" y="5" width="2" height="6" rx="1" fill="white"/>
<rect x="21.5" y="38" width="2" height="6" rx="1" fill="white"/>
<rect x="8.00439" y="11.4185" width="2" height="6" rx="1" transform="rotate(-45 8.00439 11.4185)" fill="white"/>
<rect x="31.3389" y="34.7531" width="2" height="6" rx="1" transform="rotate(-45 31.3389 34.7531)" fill="white"/>
<rect x="35.5815" y="10.0043" width="2" height="6" rx="1" transform="rotate(45 35.5815 10.0043)" fill="white"/>
<rect x="12.2471" y="33.3388" width="2" height="6" rx="1" transform="rotate(45 12.2471 33.3388)" fill="white"/>
<rect x="35.5815" y="10.0043" width="2" height="6" rx="1" transform="rotate(45 35.5815 10.0043)" fill="white"/>
<rect x="12.2471" y="33.3388" width="2" height="6" rx="1" transform="rotate(45 12.2471 33.3388)" fill="white"/>
<rect x="3" y="25.5" width="2" height="6" rx="1" transform="rotate(-90 3 25.5)" fill="white"/>
<rect x="36" y="25.5" width="2" height="6" rx="1" transform="rotate(-90 36 25.5)" fill="white"/>
<rect x="12.5" y="14" width="20" height="20" rx="10" fill="#13141D"/>
<rect x="12.5" y="14" width="20" height="20" rx="10" fill="white" fill-opacity="0.5"/>
<rect x="12.5" y="14" width="20" height="20" rx="10" stroke="white" stroke-width="2"/>
<path d="M53.7333 45.5C58.4948 45.5 62.4667 41.8662 62.4667 37.25C62.4667 32.6338 58.4948 29 53.7333 29C48.9718 29 45 32.6338 45 37.25C45 41.8662 48.9718 45.5 53.7333 45.5Z" fill="#13141D" stroke="white" stroke-width="2"/>
<path fill-rule="evenodd" clip-rule="evenodd" d="M50.061 44H37.5V46.1951H54.3293V45.0976L50.061 44Z" fill="white"/>
<path fill-rule="evenodd" clip-rule="evenodd" d="M50.256 41.1219H37.6951V44.5366H54.5243V42.8293L50.256 41.1219Z" fill="#13141D"/>
<circle cx="37.0854" cy="30.2683" r="15.2683" fill="#13141D" stroke="white" stroke-width="2"/>
<circle cx="22.939" cy="36.8536" r="8.43902" fill="#13141D" stroke="white" stroke-width="2"/>
<path d="M36.6317 36.8287C36.8557 36.3248 37.3554 36 37.9069 36V36C38.9026 36 39.5779 37.013 39.1949 37.9321L37.8131 41.2485C37.6642 41.606 37.9268 42 38.3142 42V42C39.1037 42 39.6291 42.816 39.3024 43.5347L38.0331 46.3272C37.7834 46.8764 38.1849 47.5 38.7882 47.5V47.5C39.4813 47.5 39.8688 48.2995 39.4393 48.8435L33 57L35.5 50.5H34.553C33.8257 50.5 33.3417 49.7483 33.6426 49.0862L34.9804 46.1432C35.2237 45.6078 34.8323 45 34.2442 45V45C33.6591 45 33.2677 44.3977 33.5053 43.863L36.6317 36.8287Z" fill="#A7A7A7"/>
<rect x="29.5356" y="49.0503" width="2" height="12" rx="1" transform="rotate(45 29.5356 49.0503)" fill="white"/>
<rect x="21.0503" y="50.4645" width="2" height="12" rx="1" transform="rotate(-45 21.0503 50.4645)" fill="white"/>
<rect x="20" y="55" width="2" height="12" rx="1" transform="rotate(-90 20 55)" fill="white"/>
<rect x="27" y="60" width="2" height="12" rx="1" transform="rotate(180 27 60)" fill="white"/>
</svg>
